<?xml version="1.0" encoding="utf-8"?>
<svg width="120cm" height="240cm" xmlns="http://www.w3.org/2000/svg">
<style type="text/css">path{stroke:#000;fill:#FFF;}</style>
<g>
<path d="M129.88194,271.23562l14.00933,17.51166l-4.59748,3.68245l3.23182,4.03978l-15.61738,12.4939l-3.22443,-4.03054l-11.59894,9.29041l3.21894,4.02367l-15.61738,12.4939l-3.21154,-4.01443l-11.59894,9.29041l3.20605,4.00756l-15.61738,12.4939l-3.19866,-3.99832l-3.20751,2.56912l-14.0875,-17.60938l3.21073,-2.5651l-2.70731,-3.38413l15.61738,-12.4939l2.71559,3.39449l11.61059,-9.27585l-2.72175,-3.40218l15.61738,-12.4939l2.73003,3.41254l11.61059,-9.27585l-2.73619,-3.42024l15.61738,-12.4939l2.74447,3.43059z M86.25549,304.34749l1.87409,2.34261l6.24695,-4.99756l-1.87409,-2.34261z M113.4773,282.57004l1.87409,2.34261l6.24695,-4.99756l-1.87409,-2.34261z M127.84528,300.53002l1.87409,2.34261l6.24695,-4.99756l-1.87409,-2.34261z M73.40167,344.08491l1.87409,2.34261l6.24695,-4.99756l-1.87409,-2.34261z M100.62348,322.30747l1.87409,2.34261l6.24695,-4.99756l-1.87409,-2.34261z M59.03368,326.12493l1.87409,2.34261l6.24695,-4.99756l-1.87409,-2.34261z M-182,200l-3,0l0,8l3,0z M-182,170l-3,0l0,8l3,0z" />
<path d="M184,158.5l22,0l0,5.5l5,0l0,20l-5,0l0,10l5,0l0,20l-5,0l0,25l-19.87626,15.9203l3.254,4.0675l-15.61738,12.4939l-3.24661,-4.05826l-7.80499,6.25157l3.24291,4.05364l-15.61738,12.4939l-3.23552,-4.0444l-3.20751,2.56912l-14.00933,-17.51166l3.21073,-2.5651l-2.74862,-3.43577l15.61738,-12.4939l2.7569,3.44613l7.81283,-6.24177l-2.76104,-3.4513l15.61738,-12.4939l2.76933,3.46166l11.84317,-9.46166l0,-14l-5,0l0,-20l5,0l0,-10l-5,0l0,-20l5,0z M174.69741,263.04832l1.87409,2.34261l6.24695,-4.99756l-1.87409,-2.34261z M136.90336,263.82919l1.87409,2.34261l6.24695,-4.99756l-1.87409,-2.34261z M160.32942,245.08834l1.87409,2.34261l6.24695,-4.99756l-1.87409,-2.34261z M151.27135,281.78917l1.87409,2.34261l6.24695,-4.99756l-1.87409,-2.34261z M205,208l3,0l0,-8l-3,0z M-182,200l-3,0l0,8l3,0z M-182,170l-3,0l0,8l3,0z M205,178l3,0l0,-8l-3,0z M182,178l3,0l0,-8l-3,0z M182,208l3,0l0,-8l-3,0z" />
<path d="M184,74.5l22,0l0,5.5l5,0l0,20l-5,0l0,34l5,0l0,20l-5,0l0,4.5l-22,0l0,-4.5l-5,0l0,-20l5,0l0,-34l-5,0l0,-20l5,0z M205,148l3,0l0,-8l-3,0z M182,148l3,0l0,-8l-3,0z M-182,200l-3,0l0,8l3,0z M-182,170l-3,0l0,8l3,0z M205,94l3,0l0,-8l-3,0z M182,94l3,0l0,-8l-3,0z" />
<path d="M120,11l0,-22l5,0l0,-5l20,0l0,5l10,0l0,-5l20,0l0,5l31,0l0,31l5,0l0,20l-5,0l0,10l5,0l0,20l-5,0l0,4.5l-22,0l0,-4.5l-5,0l0,-20l5,0l0,-10l-5,0l0,-20l5,0l0,-9l-9,0l0,5l-20,0l0,-5l-10,0l0,5l-20,0l0,-5z M139,-10l0,-3l-8,0l0,3z M-182,200l-3,0l0,8l3,0z M169,-10l0,-3l-8,0l0,3z M-182,170l-3,0l0,8l3,0z M205,64l3,0l0,-8l-3,0z M139,13l0,-3l-8,0l0,3z M205,34l3,0l0,-8l-3,0z M169,13l0,-3l-8,0l0,3z M182,34l3,0l0,-8l-3,0z M182,64l3,0l0,-8l-3,0z" />
<path d="M-120,11l0,-22l5,0l0,-5l20,0l0,5l10,0l0,-5l20,0l0,5l10,0l0,-5l20,0l0,5l10,0l0,-5l20,0l0,5l10,0l0,-5l20,0l0,5l10,0l0,-5l20,0l0,5l10,0l0,-5l20,0l0,5l10,0l0,-5l20,0l0,5l5,0l0,22l-5,0l0,5l-20,0l0,-5l-10,0l0,5l-20,0l0,-5l-10,0l0,5l-20,0l0,-5l-10,0l0,5l-20,0l0,-5l-10,0l0,5l-20,0l0,-5l-10,0l0,5l-20,0l0,-5l-10,0l0,5l-20,0l0,-5l-10,0l0,5l-20,0l0,-5z M-182,200l-3,0l0,8l3,0z M-182,170l-3,0l0,8l3,0z M109,-10l0,-3l-8,0l0,3z M-41,13l0,-3l-8,0l0,3z M19,-10l0,-3l-8,0l0,3z M-101,13l0,-3l-8,0l0,3z M-11,13l0,-3l-8,0l0,3z M49,-10l0,-3l-8,0l0,3z M79,13l0,-3l-8,0l0,3z M109,13l0,-3l-8,0l0,3z M-71,-10l0,-3l-8,0l0,3z M49,13l0,-3l-8,0l0,3z M19,13l0,-3l-8,0l0,3z M-71,13l0,-3l-8,0l0,3z M79,-10l0,-3l-8,0l0,3z" />
<path d="M-184,75.5l-22,0l0,-5.5l-5,0l0,-20l5,0l0,-10l-5,0l0,-20l5,0l0,-31l31,0l0,-5l20,0l0,5l10,0l0,-5l20,0l0,5l5,0l0,22l-5,0l0,5l-20,0l0,-5l-10,0l0,5l-20,0l0,-5l-9,0l0,9l5,0l0,20l-5,0l0,10l5,0l0,20l-5,0z M-161,13l0,-3l-8,0l0,3z M-182,200l-3,0l0,8l3,0z M-182,170l-3,0l0,8l3,0z M-182,26l-3,0l0,8l3,0z M-205,26l-3,0l0,8l3,0z M-131,13l0,-3l-8,0l0,3z M-182,56l-3,0l0,8l3,0z" />
<path d="M-184,159.5l-22,0l0,-5.5l-5,0l0,-20l5,0l0,-34l-5,0l0,-20l5,0l0,-4.5l22,0l0,4.5l5,0l0,20l-5,0l0,34l5,0l0,20l-5,0z M-182,200l-3,0l0,8l3,0z M-182,170l-3,0l0,8l3,0z M-205,140l-3,0l0,8l3,0z M-182,140l-3,0l0,8l3,0z M-205,86l-3,0l0,8l3,0z M-182,86l-3,0l0,8l3,0z" />
<path d="M-128.49058,272.3472l-14.01072,17.51341l-4.59748,-3.68245l-3.23552,4.0444l-15.61738,-12.4939l3.24291,-4.05364l-7.80499,-6.25157l-3.24661,4.05826l-15.61738,-12.4939l3.254,-4.0675l-19.87626,-15.9203l0,-25l-5,0l0,-20l5,0l0,-10l-5,0l0,-20l5,0l0,-4.5l22,0l0,4.5l5,0l0,20l-5,0l0,10l5,0l0,20l-5,0l0,14l11.84317,9.46166l2.76933,-3.46166l15.61738,12.4939l-2.76104,3.4513l7.81283,6.24177l2.7569,-3.44613l15.61738,12.4939l-2.74862,3.43577z M-180.94436,258.05076l-1.87409,2.34261l6.24695,4.99756l1.87409,-2.34261z M-157.5183,276.79161l-1.87409,2.34261l6.24695,4.99756l1.87409,-2.34261z M-166.57638,240.09078l-1.87409,2.34261l6.24695,4.99756l1.87409,-2.34261z M-143.15031,258.83163l-1.87409,2.34261l6.24695,4.99756l1.87409,-2.34261z M-205,170l-3,0l0,8l3,0z M-205,200l-3,0l0,8l3,0z" />
<path d="M-50.57959,334.5913l-14.0889,17.61112l-4.59748,-3.68245l-3.19866,3.99832l-15.61738,-12.4939l3.20605,-4.00756l-11.59894,-9.29041l-3.21154,4.01443l-15.61738,-12.4939l3.21894,-4.02367l-11.59894,-9.29041l-3.22443,4.03054l-15.61738,-12.4939l3.23182,-4.03978l-3.20751,-2.56912l14.01072,-17.51341l3.21073,2.5651l2.74447,-3.43059l15.61738,12.4939l-2.73619,3.42024l11.61059,9.27585l2.73003,-3.41254l15.61738,12.4939l-2.72175,3.40218l11.61059,9.27585l2.71559,-3.39449l15.61738,12.4939l-2.70731,3.38413z M-119.72425,277.57248l-1.87409,2.34261l6.24695,4.99756l1.87409,-2.34261z M-134.09223,295.53246l-1.87409,2.34261l6.24695,4.99756l1.87409,-2.34261z M-79.64862,339.08735l-1.87409,2.34261l6.24695,4.99756l1.87409,-2.34261z M-106.87043,317.30991l-1.87409,2.34261l6.24695,4.99756l1.87409,-2.34261z M-65.28063,321.12737l-1.87409,2.34261l6.24695,4.99756l1.87409,-2.34261z M-92.50244,299.34993l-1.87409,2.34261l6.24695,4.99756l1.87409,-2.34261z M-182,200l-3,0l0,8l3,0z M-182,170l-3,0l0,8l3,0z" />
<path d="M51.97096,333.47973l14.0875,17.60938l-4.59748,3.68245l3.19496,3.9937l-15.61738,12.4939l-3.18757,-3.98446l-7.80499,6.25157l3.18387,3.97984l-15.61738,12.4939l-3.17648,-3.9706l-22.43602,17.9706l-22.43602,-17.9706l-3.17648,3.9706l-15.61738,-12.4939l3.18387,-3.97984l-7.80499,-6.25157l-3.18757,3.98446l-15.61738,-12.4939l3.19496,-3.9937l-3.20751,-2.56912l14.0889,-17.61112l3.21073,2.5651l2.70316,-3.37895l15.61738,12.4939l-2.69488,3.3686l7.81283,6.24177l2.69074,-3.36342l15.61738,12.4939l-2.68245,3.35306l8.30471,6.63474l8.30471,-6.63474l-2.68245,-3.35306l15.61738,-12.4939l2.69074,3.36342l7.81283,-6.24177l-2.69488,-3.3686l15.61738,-12.4939l2.70316,3.37895z M12.18155,363.60663l1.87409,2.34261l6.24695,-4.99756l-1.87409,-2.34261z M-32.79649,376.56906l-1.87409,2.34261l6.24695,4.99756l1.87409,-2.34261z M26.54954,381.56662l1.87409,2.34261l6.24695,-4.99756l-1.87409,-2.34261z M49.9756,362.82577l1.87409,2.34261l6.24695,-4.99756l-1.87409,-2.34261z M35.60762,344.86578l1.87409,2.34261l6.24695,-4.99756l-1.87409,-2.34261z M-41.85457,339.86822l-1.87409,2.34261l6.24695,4.99756l1.87409,-2.34261z M-18.4285,358.60907l-1.87409,2.34261l6.24695,4.99756l1.87409,-2.34261z M-56.22255,357.82821l-1.87409,2.34261l6.24695,4.99756l1.87409,-2.34261z M-182,200l-3,0l0,8l3,0z M-182,170l-3,0l0,8l3,0z" />
</g>
</svg>